HIERARCHY
ROOT root
{
	OFFSET 0.000000 0.000000 0.000000
	CHANNELS 6 Xposition Yposition Zposition Zrotation Yrotation Xrotation
	JOINT lhip
	{
		OFFSET 0.058581 -0.082280 -0.017664
		CHANNELS 3 Zrotation Yrotation Xrotation
		JOINT lknee
		{
			OFFSET 0.043451 -0.386469 0.008037
			CHANNELS 3 Zrotation Yrotation Xrotation
			JOINT lankle
			{
				OFFSET -0.014790 -0.426874 -0.037428
				CHANNELS 3 Zrotation Yrotation Xrotation
				JOINT ltoe
				{
					OFFSET 0.041054 -0.060286 0.122042
					CHANNELS 3 Zrotation Yrotation Xrotation
					End Site
					{
						OFFSET 0.000000 0.000000 0.000000
					}
				}
			}
		}
	}
	JOINT rhip
	{
		OFFSET -0.060310 -0.090513 -0.013543
		CHANNELS 3 Zrotation Yrotation Xrotation
		JOINT rknee
		{
			OFFSET -0.043257 -0.383688 -0.004843
			CHANNELS 3 Zrotation Yrotation Xrotation
			JOINT rankle
			{
				OFFSET 0.019056 -0.420046 -0.034562
				CHANNELS 3 Zrotation Yrotation Xrotation
				JOINT rtoe
				{
					OFFSET -0.034840 -0.062106 0.130323
					CHANNELS 3 Zrotation Yrotation Xrotation
					End Site
					{
						OFFSET 0.000000 0.000000 0.000000
					}
				}
			}
		}
	}
	JOINT lowerback
	{
		OFFSET 0.004439 0.124404 -0.038385
		CHANNELS 3 Zrotation Yrotation Xrotation
		JOINT upperback
		{
			OFFSET 0.004488 0.137956 0.026820
			CHANNELS 3 Zrotation Yrotation Xrotation
			JOINT chest
			{
				OFFSET -0.002265 0.056032 0.002855
				CHANNELS 3 Zrotation Yrotation Xrotation
				JOINT lowerneck
				{
					OFFSET -0.013390 0.211636 -0.033468
					CHANNELS 3 Zrotation Yrotation Xrotation
					JOINT upperneck
					{
						OFFSET 0.010113 0.088937 0.050410
						CHANNELS 3 Zrotation Yrotation Xrotation
						End Site
						{
							OFFSET 0.000000 0.000000 0.000000
						}
					}
				}
				JOINT lclavicle
				{
					OFFSET 0.071702 0.114000 -0.018898
					CHANNELS 3 Zrotation Yrotation Xrotation
					JOINT lshoulder
					{
						OFFSET 0.122921 0.045205 -0.019046
						CHANNELS 3 Zrotation Yrotation Xrotation
						JOINT lelbow
						{
							OFFSET 0.255332 -0.015649 -0.022946
							CHANNELS 3 Zrotation Yrotation Xrotation
							JOINT lwrist
							{
								OFFSET 0.265709 0.012698 -0.007375
								CHANNELS 3 Zrotation Yrotation Xrotation
								End Site
								{
									OFFSET 0.000000 0.000000 0.000000
								}
							}
						}
					}
				}
				JOINT rclavicle
				{
					OFFSET -0.082954 0.112472 -0.023707
					CHANNELS 3 Zrotation Yrotation Xrotation
					JOINT rshoulder
					{
						OFFSET -0.113228 0.046853 -0.008472
						CHANNELS 3 Zrotation Yrotation Xrotation
						JOINT relbow
						{
							OFFSET -0.260127 -0.014369 -0.031269
							CHANNELS 3 Zrotation Yrotation Xrotation
							JOINT rwrist
							{
								OFFSET -0.269108 0.006794 -0.006027
								CHANNELS 3 Zrotation Yrotation Xrotation
								End Site
								{
									OFFSET 0.000000 0.000000 0.000000
								}
							}
						}
					}
				}
			}
		}
	}
}
MOTION
Frames: 5
Frame Time: 0.033333
0.228084 0.234006 1.008092 1.320419 -1.399147 84.230918 -0.800760 -5.369800 -16.691637 -7.437296 0.604849 51.003859 1.196414 11.550175 -19.120011 0.000000 -0.000000 0.000000 4.957391 -0.866979 -0.909063 -0.844344 1.651092 13.724351 0.707040 -9.722689 -9.654623 0.000000 -0.000000 0.000000 -1.083580 6.004892 12.347351 2.782684 -0.577309 -0.866343 0.523217 0.370266 4.083289 3.747668 -0.681236 -6.802755 0.536028 -6.234877 -3.739614 -22.064258 7.430316 0.325460 -48.082122 0.684312 7.537412 3.166065 -19.525079 16.909497 -8.452473 -7.731162 0.994799 24.490060 -0.621700 -3.518972 53.287005 4.465785 12.428445 -9.241699 15.278367 2.699797 9.309182 1.245498 -8.221779 
0.228796 0.206752 1.006202 0.013428 -1.566132 84.021557 -0.362436 -5.957691 -18.824240 -6.823899 0.899744 45.563053 1.329355 11.958486 -20.386250 0.000000 -0.000000 0.000000 4.720985 -1.330579 1.253303 -0.768036 2.846486 13.643154 0.948823 -9.197521 -11.277087 0.000000 -0.000000 0.000000 -0.899854 6.703568 12.441099 2.289591 -0.238651 -0.876699 0.398896 0.941866 4.433761 4.019611 -0.788740 -7.132710 0.640757 -6.793538 -3.606699 -22.179080 8.120970 -0.219245 -48.550019 1.309647 7.270209 4.556522 -20.509463 13.962875 -6.153882 -8.027473 -1.485783 24.396674 0.474957 -3.902856 52.317549 6.941181 12.751151 -8.944979 16.461172 2.303770 7.718914 1.622318 -7.775396 
0.229723 0.180015 1.003755 -0.903742 -1.578362 84.126600 -0.053728 -6.256658 -20.575149 -5.792237 0.405075 38.554510 1.313999 12.116430 -20.488779 0.000000 -0.000000 0.000000 4.454319 -1.859446 3.041953 -0.627430 3.733155 13.558504 1.179844 -8.622543 -12.815270 0.000000 -0.000000 0.000000 -0.614127 7.129459 12.333059 1.886626 -0.095231 -1.001583 0.325490 1.286753 4.670535 4.031325 -0.816438 -7.340600 0.470708 -7.320408 -3.242277 -22.333563 8.410225 -0.821348 -49.585647 1.578755 7.321740 5.862862 -20.700052 12.226573 -3.496385 -7.792548 -2.451083 24.223932 1.427118 -4.384659 51.475274 9.339718 12.877840 -8.873999 18.318920 1.713734 5.934561 1.995135 -7.783175 
0.230508 0.153564 1.000745 -1.685184 -1.452041 84.542013 0.174501 -6.125149 -21.715311 -4.547084 -0.578808 29.825418 1.099813 11.879623 -19.092608 0.000000 -0.000000 0.000000 4.262884 -2.444600 4.428034 -0.535348 4.402176 13.536472 1.346167 -7.905341 -14.210410 0.000000 -0.000000 0.000000 -0.270957 7.434253 12.103287 1.563275 -0.068260 -1.225314 0.265040 1.508802 4.628058 3.843694 -0.628553 -7.486493 0.164596 -7.848252 -2.549269 -22.476220 8.292601 -1.394926 -50.883623 1.670762 7.595970 6.749394 -20.436700 11.508075 -1.292823 -7.244133 -2.315009 24.003393 2.175153 -4.786920 51.006449 11.289009 12.890537 -9.397109 21.507161 0.691571 4.306961 2.452690 -8.477463 
0.230879 0.126960 0.997230 -2.439223 -1.220284 85.194475 0.344258 -5.534377 -22.117594 -3.339603 -1.882391 19.807899 0.859844 11.067966 -17.358666 0.000000 -0.000000 0.000000 4.113486 -2.952588 5.571703 -0.448206 4.811216 13.525551 1.586346 -7.050304 -15.475887 0.000000 -0.000000 0.000000 0.031593 7.708255 11.732661 1.321109 -0.126717 -1.400639 0.196029 1.667913 4.334920 3.633805 -0.293887 -7.678914 -0.151639 -8.537442 -1.656575 -22.603674 7.862886 -1.778920 -52.138211 1.610227 7.888080 7.194753 -20.480134 11.289856 -0.825945 -6.823061 -1.876776 23.768359 2.696403 -5.044720 51.113186 12.711718 12.863562 -11.033940 26.259214 -1.101330 3.917727 3.104692 -9.957951 
